<svg version="1.1" xmlns="http://www.w3.org/2000/svg" xmlns:xlink="http://www.w3.org/1999/xlink" width="62.8806" height="62.8806" viewBox="0,0,62.8806,62.8806"><g transform="translate(-208.5597,-148.5597)"><g data-paper-data="{&quot;isPaintingLayer&quot;:true}" fill-rule="nonzero" stroke-linecap="butt" stroke-linejoin="miter" stroke-miterlimit="10" stroke-dasharray="" stroke-dashoffset="0" style="mix-blend-mode: normal"><path d="M208.5597,180c0,-17.364 14.0763,-31.4403 31.4403,-31.4403c17.364,0 31.4403,14.0763 31.4403,31.4403c0,17.364 -14.0763,31.4403 -31.4403,31.4403c-17.364,0 -31.4403,-14.0763 -31.4403,-31.4403z" fill="#ffffff" stroke="#000000" stroke-width="0"/><path d="M212.5,180c0,-15.18783 12.31217,-27.5 27.5,-27.5c15.18783,0 27.5,12.31217 27.5,27.5c0,15.18783 -12.31217,27.5 -27.5,27.5c-15.18783,0 -27.5,-12.31217 -27.5,-27.5z" fill="#00e6ff" stroke="#000000" stroke-width="2"/><path d="M227.09143,189.47481c-1.35825,0 -2.46321,-1.10496 -2.46321,-2.46321v-17.07101c0,-1.35825 1.10496,-2.46321 2.46321,-2.46321h25.81704c1.35817,0 2.46321,1.10496 2.4633,2.46321v17.07101c0,1.35825 -1.10496,2.46321 -2.46321,2.46321h-8.72669l0.24516,2.31549c0.0197,0.18685 -0.04073,0.37327 -0.16636,0.51294c-0.12572,0.13959 -0.3048,0.21937 -0.49262,0.21937h-7.00603c-0.18791,0 -0.367,-0.07969 -0.49262,-0.21937c-0.12572,-0.13968 -0.18615,-0.32609 -0.16636,-0.51294l0.24516,-2.31549zM242.84907,189.47481h-5.16832l-0.18235,1.72269h5.53311zM225.95343,169.94059v15.02868h28.09305v-15.02868c0,-0.62753 -0.51047,-1.138 -1.138,-1.138h-25.81704c-0.62753,0 -1.138,0.51047 -1.138,1.138zM227.09143,188.1496h25.81696c0.62753,0 1.138,-0.51047 1.138,-1.138v-0.71711h-28.09296v0.71711c0,0.62753 0.51047,1.138 1.138,1.138z" fill="#ffffff" stroke="#ffffff" stroke-width="1"/></g></g></svg>