<svg version="1.1" xmlns="http://www.w3.org/2000/svg" xmlns:xlink="http://www.w3.org/1999/xlink" width="94" height="169.77179" viewBox="0,0,94,169.77179"><g transform="translate(-193,-95.11411)"><g data-paper-data="{&quot;isPaintingLayer&quot;:true}" fill-rule="nonzero" stroke="none" stroke-linecap="butt" stroke-linejoin="miter" stroke-miterlimit="10" stroke-dasharray="" stroke-dashoffset="0" style="mix-blend-mode: normal"><path d="M270.7,107.82948c4.9,6.1 7.1,12.7 8,23.7c0.6,7.5 0.7,7.9 3.5,8.8c3.5,1.2 4.8,3.5 4.8,8.3c0,4.5 -4.5,9.5 -8.4,9.5c-1.7,0 -4.1,1.5 -7,4.4c-5.5,5.5 -12.7,9.3 -19.5,10.2c-2.8,0.4 -5.1,1.2 -5.1,1.8c0,0.6 2.2,2.7 4.7,4.6c5.1,3.8 11.6,13.3 15.2,22c3.3,8 6.9,13.9 11.3,18.7c2.1,2.4 3.9,5.1 3.9,6c0.6,9.8 -7.5,13.7 -15,7.1c-3.3,-2.9 -3.6,-3.6 -3.7,-8.7c0,-3.8 -0.8,-7.2 -2.5,-10.6l-2.4,-5l-0.3,5.6c-0.2,4.1 -0.8,6.2 -2.2,7.4c-1.8,1.6 -2,3.2 -2,14.7v12.8l2.7,1.1c4.4,1.6 6.3,3.9 6.3,7.4c0,4.8 -3,7 -9.6,7c-4.2,0 -5.8,-0.5 -7.6,-2.3c-2.2,-2.1 -2.3,-3 -2.4,-19c-0.1,-9.2 -0.4,-16.6 -0.8,-16.5c-0.3,0.2 -1.9,0.3 -3.5,0.3h-2.9v16.6c0,15.2 -0.1,16.8 -1.9,18.6c-4.5,4.5 -16.5,2.7 -17.9,-2.6c-0.8,-3.3 1.8,-7.5 5.7,-8.9l2.9,-1.1v-12.5c0,-10.1 -0.3,-12.8 -1.6,-14.2c-0.9,-1 -1.9,-3.9 -2.1,-6.4c-0.3,-2.5 -0.9,-4.5 -1.3,-4.5c-0.4,0 -1.7,2.4 -2.8,5.4c-1.8,4.6 -1.9,5.9 -0.9,8.6c1.1,2.8 1,3.3 -0.8,4.5c-1.1,0.8 -2.9,2.3 -4,3.3c-3,3 -6,3.5 -9.4,1.7c-6.3,-3.2 -6.8,-8.7 -1.2,-14.8c2.1,-2.3 6.9,-10.2 10.6,-17.6c8.5,-17.1 10.7,-20.4 16.7,-24.7c4.8,-3.5 5.4,-5.4 1.8,-5.4c-1,0 -4.8,-0.9 -8.5,-2.1c-5.3,-1.6 -7.8,-3.1 -12.3,-7.5c-4.1,-4 -6.4,-5.4 -8.4,-5.4c-4.3,0 -7.8,-4 -7.8,-8.9c0,-5.3 0.7,-6.9 4,-8.6c2.4,-1.3 2.8,-2.1 3.3,-8.3c0.9,-9.5 4.1,-19.3 8,-24.3c3.7,-4.9 11.8,-9.7 19.1,-11.5c16.6,-4 34.8,0.7 43.3,11.3zM221.7,99.92948c-9.4,4.2 -16,12.6 -18.7,24c-1.7,7.2 -1.7,21.7 0,26.7c1.9,5.8 6.6,12.2 11.1,15.2c11.4,7.5 34.4,8.4 48.4,1.7c13,-6.1 18.5,-23.9 13.6,-43.4c-3.4,-13.6 -7.9,-19.4 -18.9,-24.2c-8.8,-3.9 -26.6,-3.9 -35.5,0zM195.7,143.92948c-3.5,3.9 -1.1,11 4.3,12.7c3,0.9 3.6,0 2.3,-3.8c-0.7,-1.7 -1.5,-4.9 -1.9,-7c-0.7,-4.1 -2.2,-4.7 -4.7,-1.9zM279,145.02948c0,1.6 -0.7,4.7 -1.4,6.9c-0.8,2.3 -1.1,4.4 -0.6,4.7c1.4,0.9 5.8,-1.3 6.9,-3.4c1.5,-2.7 1.4,-8.4 -0.1,-9.9c-2.3,-2.3 -4.8,-1.4 -4.8,1.7zM238.9,174.12948c-3.4,0 -4.9,0.4 -4.9,1.3c0,0.8 -1.2,2 -2.6,2.7c-4.3,2.3 -6.2,7.8 -8.1,22.4c-2.5,20.6 -1.1,23.3 12.9,24.4c7.3,0.5 15.3,-1 18.1,-3.5c2.1,-2 2.2,-9.4 0.3,-24.8c-1.7,-13.5 -1.9,-14.1 -6.9,-18.8c-3.4,-3.2 -4.6,-3.7 -8.8,-3.7zM256.9,186.12948l-2,-2.5l0.6,5c1.4,11.1 2.5,15.4 6.5,23.9c3.5,7.6 4,9.4 3.4,13.2c-0.4,2.9 -0.3,4.4 0.4,4.4c0.6,0 2.2,1.1 3.6,2.5c3.2,3.2 6,3.2 9.1,0c3.7,-3.6 3.2,-7.1 -1.4,-11.4c-2.8,-2.6 -6,-7.9 -11,-18.1c-4,-8 -8.1,-15.6 -9.2,-17zM223.1,186.12948c-0.6,0 -4.7,7.2 -9.1,16c-5.3,10.6 -9.2,17 -11.5,19.1c-2.7,2.5 -3.5,4 -3.5,6.6c0,6.7 6.9,9.6 11.4,4.8c1.3,-1.4 2.8,-2.5 3.3,-2.5c0.6,0 1,-2.5 0.9,-5.8c-0.1,-4.5 0.6,-7.1 3.2,-12.6c2.1,-4.4 3.6,-9.8 4.3,-14.5c0.5,-4.2 1.2,-8.4 1.5,-9.4c0.3,-0.9 0.1,-1.7 -0.5,-1.7zM233.8,226.32948l-2.9,-0.4c-1.6,-0.3 -3.1,-0.2 -3.4,0c-0.3,0.3 -0.5,5.9 -0.5,12.5c0,10.2 0.3,12.2 1.8,13.3c1.4,1.1 1.2,1.2 -1.5,0.2c-2.8,-1.1 -3.6,-1 -6,0.8c-3.3,2.5 -4.1,6.5 -1.8,8.8c2,2 10.3,2.2 12.9,0.3c2.3,-1.7 3,-9.6 2.1,-24zM247.3,225.82948c-2.3,0.4 -2.3,0.6 -2.3,16.6c0,19.8 0.4,20.7 8.4,20.7c4,0 5.7,-0.5 7.1,-2c4.2,-4.6 -2.6,-11.5 -8.9,-9.2c-3.1,1.2 -3.1,1.2 -0.8,-0.6c2.2,-1.7 2.3,-2.3 2,-13.7c-0.3,-12.8 -0.3,-12.8 -5.5,-11.8z" fill="#000000" stroke-width="1"/><path d="M283.82165,143.28441c1.5,1.5 1.60959,7.28411 0.10959,9.98411c-1.1,2.1 -5.55492,4.305 -6.95492,3.405c-0.5,-0.3 -0.21607,-2.41371 0.58393,-4.71371c0.7,-2.2 1.42026,-5.37637 1.42026,-6.97637c0,-3.1 2.54114,-3.99903 4.84114,-1.69903z" data-paper-data="{&quot;noHover&quot;:false,&quot;origItem&quot;:[&quot;Path&quot;,{&quot;applyMatrix&quot;:true,&quot;selected&quot;:true,&quot;segments&quot;:[[[558,290.05894],[0,-6.2],[0,3.2],7],[[555.2,303.85894],[1.4,-4.4],[-1.6,4.6],7],[[554,313.25894],[-1,-0.6],[2.8,1.8],7],[[567.8,306.45894],[-2.2,4.2],[3,-5.4],7],[[567.6,286.65894],[3,3],[-4.6,-4.6],7]],&quot;closed&quot;:true,&quot;fillColor&quot;:[0,0,0]}]}" fill="#ffffff" stroke-width="0.5"/><path d="M200.42257,145.78487c0.4,2.1 1.21542,5.37713 1.91541,7.07713c1.3,3.8 0.6724,4.7164 -2.3276,3.8164c-5.4,-1.7 -7.83261,-8.8937 -4.33261,-12.7937c2.5,-2.8 4.04479,-2.19983 4.74479,1.90017z" data-paper-data="{&quot;noHover&quot;:false,&quot;origItem&quot;:[&quot;Path&quot;,{&quot;applyMatrix&quot;:true,&quot;selected&quot;:true,&quot;segments&quot;:[[[391.4,287.85894],[5,-5.6],[-7,7.8],7],[[400,313.25894],[-10.8,-3.4],[6,1.8],7],[[404.6,305.65894],[2.6,7.6],[-1.4,-3.4],7],[[400.8,291.65894],[0.8,4.2],[-1.4,-8.2],7]],&quot;closed&quot;:true,&quot;fillColor&quot;:[0,0,0]}]}" fill="#ffffff" stroke-width="0.5"/><path d="M266.08587,203.08152c5,10.2 8.24465,15.58756 11.04465,18.18756c4.6,4.3 5.09014,7.80594 1.39014,11.40594c-3.1,3.2 -5.91751,3.20436 -9.1175,0.00437c-1.4,-1.4 -3.00824,-2.50016 -3.60824,-2.50016c-0.7,0 -0.80253,-1.50033 -0.40253,-4.40033c0.6,-3.8 0.06362,-5.62566 -3.43638,-13.22566c-4,-8.5 -5.08174,-12.86662 -6.48174,-23.96662l-0.59687,-5.00173l2.00114,2.49944c1.1,1.4 5.20734,8.9972 9.20734,16.9972z" data-paper-data="{&quot;noHover&quot;:false,&quot;origItem&quot;:[&quot;Path&quot;,{&quot;applyMatrix&quot;:true,&quot;selected&quot;:true,&quot;segments&quot;:[[[513.8,372.25894],[2.2,2.8],[0,0],7],[[509.8,367.25894],[0,0],[0,0],7],[[511,377.25894],[0,0],[2.8,22.2],7],[[524,425.05894],[-8,-17],[7,15.2],7],[[530.8,451.45894],[1.2,-7.6],[-0.8,5.8],7],[[531.6,460.25894],[-1.4,0],[1.2,0],7],[[538.8,465.25894],[-2.8,-2.8],[6.4,6.4],7],[[557,465.25894],[-6.2,6.4],[7.4,-7.2],7],[[554.2,442.45894],[9.2,8.6],[-5.6,-5.2],7],[[532.2,406.25894],[10,20.4],[-8,-16],7]],&quot;closed&quot;:true,&quot;fillColor&quot;:[0,0,0]}]}" fill="#ffffff" stroke-width="0.5"/><path d="M234.53847,237.79754c0.9,14.4 0.17752,22.37932 -2.12248,24.07932c-2.6,1.9 -10.93502,1.69886 -12.93502,-0.30114c-2.3,-2.3 -1.45426,-6.38851 1.84574,-8.88851c2.4,-1.8 3.1682,-1.90747 5.9682,-0.80747c2.7,1 2.91994,0.99749 1.51994,-0.10251c-1.5,-1.1 -1.81871,-3.0979 -1.81871,-13.2979c0,-6.6 0.20647,-12.29978 0.50647,-12.59978c0.3,-0.2 1.80887,-0.29873 3.40887,0.00127l2.90714,0.40226z" data-paper-data="{&quot;noHover&quot;:false,&quot;origItem&quot;:[&quot;Path&quot;,{&quot;applyMatrix&quot;:true,&quot;selected&quot;:true,&quot;segments&quot;:[[[467.6,452.65894],[0,0],[0,0],7],[[461.8,451.85894],[0,0],[-3.2,-0.6],7],[[455,451.85894],[0.6,-0.4],[-0.6,0.6],7],[[454,476.85894],[0,-13.2],[0,20.4],7],[[457.6,503.45894],[-3,-2.2],[2.8,2.2],7],[[454.6,503.85894],[5.4,2],[-5.6,-2.2],7],[[442.6,505.45894],[4.8,-3.6],[-6.6,5],7],[[439,523.05894],[-4.6,-4.6],[4,4],7],[[464.8,523.65894],[-5.2,3.8],[4.6,-3.4],7],[[469,475.65894],[1.8,28.8],[0,0],7]],&quot;closed&quot;:true,&quot;fillColor&quot;:[0,0,0]}]}" fill="#ffffff" stroke-width="0.5"/><path d="M252.80448,237.67928c0.3,11.4 0.17821,11.99711 -2.02179,13.69711c-2.3,1.8 -2.27124,1.70442 0.82876,0.50442c6.3,-2.3 13.10797,4.69474 8.90797,9.29475c-1.4,1.5 -3.11942,2.00392 -7.11942,2.00392c-8,0 -8.44883,-0.96078 -8.44883,-20.76078c0,-16 0.03313,-16.23669 2.33313,-16.63669c5.2,-1 5.22017,-0.90273 5.52017,11.89728z" data-paper-data="{&quot;noHover&quot;:false,&quot;origItem&quot;:[&quot;Path&quot;,{&quot;applyMatrix&quot;:true,&quot;selected&quot;:true,&quot;segments&quot;:[[[494.6,451.65894],[10.4,-2],[-4.6,0.8],7],[[490,484.85894],[0,-32],[0,39.6],7],[[506.8,526.25894],[-16,0],[8,0],7],[[521,522.25894],[-2.8,3],[8.4,-9.2],7],[[503.2,503.85894],[12.6,-4.6],[-6.2,2.4],7],[[501.6,502.65894],[-4.6,3.6],[4.4,-3.4],7],[[505.6,475.25894],[0.6,22.8],[-0.6,-25.6],7]],&quot;closed&quot;:true,&quot;fillColor&quot;:[0,0,0]}]}" fill="#ffffff" stroke-width="0.5"/><path d="M257.22247,99.88482c11,4.8 15.5256,10.6309 18.9256,24.2309c4.9,19.5 -0.61973,37.35496 -13.61973,43.45496c-14,6.7 -37.06006,5.79745 -48.46006,-1.70255c-4.5,-3 -9.21408,-9.4186 -11.11408,-15.2186c-1.7,-5 -1.70224,-19.53388 -0.00224,-26.73388c2.7,-11.4 9.32487,-19.83046 18.72487,-24.03046c8.9,-3.9 26.74564,-3.90037 35.54564,-0.00037z" data-paper-data="{&quot;noHover&quot;:false,&quot;origItem&quot;:[&quot;Path&quot;,{&quot;applyMatrix&quot;:true,&quot;selected&quot;:true,&quot;segments&quot;:[[[443.4,199.85894],[17.8,-7.8],[-18.8,8.4],7],[[406,247.85894],[5.4,-22.8],[-3.4,14.4],7],[[406,301.25894],[-3.4,-10],[3.8,11.6],7],[[428.2,331.65894],[-9,-6],[22.8,15],7],[[525,335.05894],[-28,13.4],[26,-12.2],7],[[552.2,248.25894],[9.8,39],[-6.8,-27.2],7],[[514.4,199.85894],[22,9.6],[-17.6,-7.8],7]],&quot;closed&quot;:true,&quot;fillColor&quot;:[0,0,0]}]}" fill="#ffffff" stroke-width="0.5"/><path d="M223.62369,187.78545c-0.3,1 -0.99235,5.20508 -1.49235,9.40508c-0.7,4.7 -2.18213,10.14783 -4.28213,14.54783c-2.6,5.5 -3.33777,8.1398 -3.23777,12.6398c0.1,3.3 -0.30552,5.80097 -0.90552,5.80097c-0.5,0 -2.00811,1.1003 -3.30811,2.5003c-4.5,4.8 -11.42693,1.89069 -11.42693,-4.80931c0,-2.6 0.79715,-4.1022 3.49714,-6.6022c2.3,-2.1 6.24686,-8.58617 11.54686,-19.18617c4.4,-8.8 8.50675,-15.99734 9.10675,-15.99734c0.6,0 0.80205,0.80104 0.50205,1.70104z" data-paper-data="{&quot;noHover&quot;:false,&quot;origItem&quot;:[&quot;Path&quot;,{&quot;applyMatrix&quot;:true,&quot;selected&quot;:true,&quot;segments&quot;:[[[446.2,372.25894],[1.2,0],[-1.2,0],7],[[428,404.25894],[8.8,-17.6],[-10.6,21.2],7],[[405,442.45894],[4.6,-4.2],[-5.4,5],7],[[398,455.65894],[0,-5.2],[0,13.4],7],[[420.8,465.25894],[-9,9.6],[2.6,-2.8],7],[[427.4,460.25894],[-1,0],[1.2,0],7],[[429.2,448.65894],[0.2,6.6],[-0.2,-9],7],[[435.6,423.45894],[-5.2,11],[4.2,-8.8],7],[[444.2,394.45894],[-1.4,9.4],[1,-8.4],7],[[447.2,375.65894],[-0.6,2],[0.6,-1.8],7]],&quot;closed&quot;:true,&quot;fillColor&quot;:[0,0,0]}]}" fill="#ffffff" stroke-width="0.5"/><path d="M247.71835,177.78297c5,4.7 5.23077,5.33715 6.93077,18.83715c1.9,15.4 1.7794,22.85043 -0.32059,24.85043c-2.8,2.5 -10.83424,4.0086 -18.13424,3.5086c-14,-1.1 -15.44419,-3.84667 -12.94419,-24.44667c1.9,-14.6 3.83297,-20.15005 8.13297,-22.45005c1.4,-0.7 2.60656,-1.90187 2.60656,-2.70187c0,-0.9 1.50994,-1.30109 4.90994,-1.30109c4.2,0 5.41878,0.50349 8.81878,3.70349z" data-paper-data="{&quot;noHover&quot;:false,&quot;origItem&quot;:[&quot;Path&quot;,{&quot;applyMatrix&quot;:true,&quot;selected&quot;:true,&quot;segments&quot;:[[[477.8,348.25894],[8.4,0],[-6.8,0],7],[[468,350.85894],[0,-1.8],[0,1.6],7],[[462.8,356.25894],[2.8,-1.4],[-8.6,4.6],7],[[446.6,401.05894],[3.8,-29.2],[-5,41.2],7],[[472.4,449.85894],[-28,-2.2],[14.6,1],7],[[508.6,442.85894],[-5.6,5],[4.2,-4],7],[[509.2,393.25894],[3.8,30.8],[-3.4,-27],7],[[495.4,355.65894],[10,9.4],[-6.8,-6.4],7]],&quot;closed&quot;:true,&quot;fillColor&quot;:[0,0,0]}]}" fill="#ffffff" stroke-width="0.5"/></g></g></svg>