<svg version="1.1" xmlns="http://www.w3.org/2000/svg" xmlns:xlink="http://www.w3.org/1999/xlink" width="62.8806" height="62.8806" viewBox="0,0,62.8806,62.8806"><g transform="translate(-208.5597,-148.5597)"><g data-paper-data="{&quot;isPaintingLayer&quot;:true}" fill-rule="nonzero" stroke="#000000" stroke-linecap="butt" stroke-linejoin="miter" stroke-miterlimit="10" stroke-dasharray="" stroke-dashoffset="0" style="mix-blend-mode: normal"><path d="M208.5597,180c0,-17.364 14.0763,-31.4403 31.4403,-31.4403c17.364,0 31.4403,14.0763 31.4403,31.4403c0,17.364 -14.0763,31.4403 -31.4403,31.4403c-17.364,0 -31.4403,-14.0763 -31.4403,-31.4403z" fill="#ffffff" stroke-width="0"/><path d="M212.5,180c0,-15.18783 12.31217,-27.5 27.5,-27.5c15.18783,0 27.5,12.31217 27.5,27.5c0,15.18783 -12.31217,27.5 -27.5,27.5c-15.18783,0 -27.5,-12.31217 -27.5,-27.5z" fill="#00e6ff" stroke-width="2"/><path d="M230.26568,166.81461c2.99642,1.64696 19.23711,10.57349 24.44483,13.43587c1.01249,0.5565 0.96588,1.49332 -0.20374,2.13619c-3.05653,1.67999 -17.18569,9.28953 -23.23522,12.54599c-1.69913,0.91464 -2.76087,0.15385 -2.76087,-1.93645c0,-6.73373 0,-21.33639 0,-24.62687c0,-1.29227 0.82609,-2.06529 1.755,-1.55472z" fill="#ffffff" stroke-width="2.5"/><path d="M229.77314,165.82953c2.99642,1.64696 19.23711,10.57349 24.44483,13.43587c1.01249,0.5565 0.96588,1.49332 -0.20374,2.13619c-3.05653,1.67999 -17.18569,9.28953 -23.23522,12.54599c-1.69913,0.91464 -2.76087,0.15385 -2.76087,-1.93645c0,-6.73373 0,-21.33639 0,-24.62687c0,-1.29227 0.82609,-2.06529 1.755,-1.55472z" fill="#ffffff" stroke-width="2"/></g></g></svg>