<svg version="1.1" xmlns="http://www.w3.org/2000/svg" xmlns:xlink="http://www.w3.org/1999/xlink" width="774.14302" height="723.09198" viewBox="0,0,774.14302,723.09198"><g transform="translate(155.32977,206.07053)"><g data-paper-data="{&quot;isPaintingLayer&quot;:true}" fill-rule="nonzero" stroke-linecap="butt" stroke-linejoin="miter" stroke-miterlimit="10" stroke-dasharray="" stroke-dashoffset="0" style="mix-blend-mode: normal"><path d="M-19.00901,372.94295v-385.88589h518.01802v385.88589z" fill="#a8e8ff" stroke="#000000" stroke-width="2"/><path d="M218.5441,492.60185l375.84955,-375.84955l24.4196,24.4196l-375.84955,375.84955z" fill="#ffffff" stroke="none" stroke-width="0"/><path d="M-99.77421,217.82707l375.84955,-375.84955l24.4196,24.4196l-375.84955,375.84955z" fill="#ffffff" stroke="none" stroke-width="0"/><path d="M56.38194,355.96521l375.84955,-375.84955l24.4196,24.4196l-375.84955,375.84955z" fill="#ffffff" stroke="none" stroke-width="0"/><path d="M162.98855,444.5538l375.84955,-375.84955l24.4196,24.4196l-375.84955,375.84955z" fill="#ffffff" stroke="none" stroke-width="0"/><path d="M-155.32977,169.77902l375.84955,-375.84955l24.4196,24.4196l-375.84955,375.84955z" fill="#ffffff" stroke="none" stroke-width="0"/><path d="M-33.14871,341.89226l443.79975,-443.79975l24.4196,24.4196l-443.79975,443.79975z" fill="#ffffff" stroke="none" stroke-width="0"/><path d="M107.43299,401.01025l375.84955,-375.84955l24.4196,24.4196l-375.84955,375.84955z" fill="#ffffff" stroke="none" stroke-width="0"/><path d="M-54.72917,264.37362l375.84955,-375.84955l24.4196,24.4196l-375.84955,375.84955z" fill="#ffffff" stroke="none" stroke-width="0"/><text transform="translate(32.80252,84.17508) scale(2.0246,2.0246)" font-size="40" xml:space="preserve" fill="#ffffff" fill-rule="nonzero" stroke="#000000" stroke-width="1" stroke-linecap="butt" stroke-linejoin="miter" stroke-miterlimit="10" stroke-dasharray="" stroke-dashoffset="0" font-family="Marker" font-weight="normal" text-anchor="start" style="mix-blend-mode: normal"><tspan x="0" dy="0">Cargando...</tspan></text><text transform="translate(110.51911,138.85315) scale(0.82535,0.82535)" font-size="40" xml:space="preserve" fill="#ffffff" fill-rule="nonzero" stroke="#000000" stroke-width="2" stroke-linecap="butt" stroke-linejoin="miter" stroke-miterlimit="10" stroke-dasharray="" stroke-dashoffset="0" font-family="Marker" font-weight="normal" text-anchor="start" style="mix-blend-mode: normal"><tspan x="0" dy="0">Por Favor espere</tspan></text></g></g></svg>