<svg version="1.1" xmlns="http://www.w3.org/2000/svg" xmlns:xlink="http://www.w3.org/1999/xlink" width="611.63227" height="458.7242" viewBox="0,0,611.63227,458.7242"><defs><linearGradient x1="259.0075" y1="149.56726" x2="259.0075" y2="211.68225" gradientTransform="translate(-14.09676,-145.73752) scale(0.74299,0.74299)" gradientUnits="userSpaceOnUse" id="color-1"><stop offset="0" stop-color="#4ecc72"/><stop offset="1" stop-color="#eaff00"/></linearGradient><linearGradient x1="259.0075" y1="149.56726" x2="259.0075" y2="211.68225" gradientTransform="translate(-14.09676,-145.73752) scale(0.74299,0.74299)" gradientUnits="userSpaceOnUse" id="color-2"><stop offset="0" stop-color="#4ecc72"/><stop offset="1" stop-color="#eaff00"/></linearGradient></defs><g transform="translate(65.81614,49.3621)"><g data-paper-data="{&quot;isPaintingLayer&quot;:true}" fill-rule="nonzero" stroke-linejoin="miter" stroke-miterlimit="10" stroke-dasharray="" stroke-dashoffset="0" style="mix-blend-mode: normal"><path d="M-65.81613,409.3621v-458.7242h611.63227v458.7242z" fill="#000000" stroke="none" stroke-width="0" stroke-linecap="butt"/><text transform="translate(18.97311,196.15104) scale(1.34592,1.34592)" font-size="40" xml:space="preserve" fill="url(#color-1)" fill-rule="nonzero" stroke="url(#color-2)" stroke-width="3" stroke-linecap="butt" stroke-linejoin="miter" stroke-miterlimit="10" stroke-dasharray="" stroke-dashoffset="0" font-family="Sans Serif" font-weight="normal" text-anchor="start" style="mix-blend-mode: normal"><tspan x="0" dy="0">R3v$tud¡oG4m3$</tspan></text><path d="M381.50001,326c0,10.76955 -8.95431,19.5 -20,19.5c-11.04569,0 -20,-8.73045 -20,-19.5c0,-10.76955 8.95431,-19.5 20,-19.5c11.04569,0 20,8.73045 20,19.5z" fill="#9966ff" stroke="none" stroke-width="0" stroke-linecap="butt"/><path d="M142.5,76c0,10.76955 -8.95431,19.5 -20,19.5c-11.04569,0 -20,-8.73045 -20,-19.5c0,-10.76955 8.95431,-19.5 20,-19.5c11.04569,0 20,8.73045 20,19.5z" fill="#9966ff" stroke="none" stroke-width="0" stroke-linecap="butt"/><path d="M372.50001,112c0,10.76955 -8.95431,19.5 -20,19.5c-11.04569,0 -20,-8.73045 -20,-19.5c0,-10.76955 8.95431,-19.5 20,-19.5c11.04569,0 20,8.73045 20,19.5z" fill="#9966ff" stroke="none" stroke-width="0" stroke-linecap="butt"/><path d="M87.50001,291c0,10.76955 -8.95431,19.5 -20,19.5c-11.04569,0 -20,-8.73045 -20,-19.5c0,-10.76955 8.95431,-19.5 20,-19.5c11.04569,0 20,8.73045 20,19.5z" fill="#9966ff" stroke="none" stroke-width="0" stroke-linecap="butt"/><path d="M354.50001,103l1,222l-299,-45" fill="none" stroke="#9966ff" stroke-width="1.5" stroke-linecap="round"/><path d="M74.50001,292l53,-215l221,32l-212,-29" fill="none" stroke="#9966ff" stroke-width="1.5" stroke-linecap="round"/></g></g></svg>