<svg version="1.1" xmlns="http://www.w3.org/2000/svg" xmlns:xlink="http://www.w3.org/1999/xlink" width="62.8806" height="62.8806" viewBox="0,0,62.8806,62.8806"><g transform="translate(-208.5597,-148.5597)"><g data-paper-data="{&quot;isPaintingLayer&quot;:true}" fill-rule="nonzero" stroke-linecap="butt" stroke-linejoin="miter" stroke-miterlimit="10" stroke-dasharray="" stroke-dashoffset="0" style="mix-blend-mode: normal"><path d="M208.5597,180c0,-17.364 14.0763,-31.4403 31.4403,-31.4403c17.364,0 31.4403,14.0763 31.4403,31.4403c0,17.364 -14.0763,31.4403 -31.4403,31.4403c-17.364,0 -31.4403,-14.0763 -31.4403,-31.4403z" fill="#ffffff" stroke="#000000" stroke-width="0"/><path d="M212.5,180c0,-15.18783 12.31217,-27.5 27.5,-27.5c15.18783,0 27.5,12.31217 27.5,27.5c0,15.18783 -12.31217,27.5 -27.5,27.5c-15.18783,0 -27.5,-12.31217 -27.5,-27.5z" fill="#00e6ff" stroke="#000000" stroke-width="2"/><g fill="#ffffff" stroke="#ffffff" stroke-width="2"><path d="M240.18911,161.28326l8.57296,0.02521l0.59254,0.353c0.39083,0.22693 0.71862,0.55472 0.94555,0.94555l0.353,0.59254v16.70467v16.70467l-0.353,0.59254c-0.22693,0.39083 -0.55472,0.71862 -0.94555,0.94555l-0.59254,0.353h-8.76207h-8.76207l-0.59254,-0.353c-0.39083,-0.22693 -0.71862,-0.55472 -0.94555,-0.94555l-0.353,-0.59254v-16.70467v-16.70467l0.3404,-0.59254c0.353,-0.57994 0.93294,-1.0338 1.58852,-1.23552c0.18911,-0.06304 4.19823,-0.10086 8.91336,-0.08825zM239.97479,162.38009c-8.08128,0 -8.49732,0.01261 -8.87554,0.23954c-0.5169,0.31518 -0.73122,0.89512 -0.74383,2.02978v0.94555h9.64458h9.64458l-0.01261,-1.00858c-0.01261,-1.15987 -0.23954,-1.7272 -0.80687,-2.01717c-0.31518,-0.16389 -1.51288,-0.18911 -8.85032,-0.18911zM249.64458,166.72961l-9.59415,-0.03782c-5.26985,-0.01261 -9.63198,0.01261 -9.6698,0.06304c-0.05043,0.03782 -0.08825,5.48417 -0.08825,12.10301v12.01476h0.8573c1.19769,0 1.73981,0.41604 1.2103,0.93294c-0.13868,0.15129 -0.45386,0.20172 -1.14726,0.20172h-0.94555l0.05043,2.10542c0.05043,2.34496 0.16389,2.77361 0.8573,3.12661c0.55472,0.28997 17.0955,0.28997 17.65022,0c0.6934,-0.353 0.80687,-0.78165 0.8573,-3.12661l0.05043,-2.10542h-7.86695c-5.95064,0 -7.90478,-0.03782 -8.01824,-0.15129c-0.22693,-0.22693 -0.1765,-0.70601 0.08825,-0.8573c0.16389,-0.07564 2.89968,-0.12607 8.00563,-0.12607h7.7661l-0.02521,-12.07779z"/><path d="M238.33584,164.00643c0.05043,0.353 -0.50429,0.63036 -0.79426,0.39083c-0.25215,-0.21432 -0.23954,-0.71862 0.03782,-0.8699c0.27736,-0.16389 0.70601,0.10086 0.75644,0.47908z"/><path d="M242.40799,163.51475c0.26475,0.15129 0.31518,0.63036 0.08825,0.8573c-0.20172,0.20172 -2.64753,0.20172 -2.84925,0c-0.25215,-0.25215 -0.1765,-0.73122 0.13868,-0.8573c0.39083,-0.15129 2.31974,-0.15129 2.62232,0z"/><path d="M241.50027,194.22613c0.21432,0.60515 0.12607,1.0338 -0.31518,1.5507c-0.39083,0.46647 -1.02119,0.66819 -1.61373,0.50429c-0.49168,-0.13868 -1.04641,-0.71862 -1.17248,-1.22291c-0.12607,-0.50429 0.21432,-1.29855 0.70601,-1.62634c0.88251,-0.59254 2.05499,-0.20172 2.39539,0.79426zM240,194.15048c-0.50429,0 -0.66819,0.78165 -0.21432,1.05901c0.45386,0.28997 0.94555,-0.44126 0.59254,-0.88251c-0.08825,-0.08825 -0.25215,-0.1765 -0.37822,-0.1765z"/></g></g></g></svg>