<svg version="1.1" xmlns="http://www.w3.org/2000/svg" xmlns:xlink="http://www.w3.org/1999/xlink" width="32.81581" height="32.81581" viewBox="0,0,32.81581,32.81581"><g transform="translate(-223.59209,-163.59209)"><g data-paper-data="{&quot;isPaintingLayer&quot;:true}" fill-rule="nonzero" stroke="#000000" stroke-linejoin="miter" stroke-miterlimit="10" stroke-dasharray="" stroke-dashoffset="0" style="mix-blend-mode: normal"><path d="M223.59209,180c0,-9.06184 7.34607,-16.40791 16.40791,-16.40791c9.06184,0 16.40791,7.34607 16.40791,16.40791c0,9.06184 -7.34607,16.40791 -16.40791,16.40791c-9.06184,0 -16.40791,-7.34607 -16.40791,-16.40791z" fill="#ffffff" stroke-width="0" stroke-linecap="butt"/><path d="M225.64844,180c0,-7.92615 6.42541,-14.35156 14.35156,-14.35156c7.92615,0 14.35156,6.42541 14.35156,14.35156c0,7.92615 -6.42541,14.35156 -14.35156,14.35156c-7.92615,0 -14.35156,-6.42541 -14.35156,-14.35156z" fill="#ff0000" stroke-width="2" stroke-linecap="butt"/><path d="M234.96226,174.96226l10.07548,10.07548" fill="none" stroke-width="3.5" stroke-linecap="round"/><path d="M245.03774,174.96226l-10.07548,10.07548" fill="none" stroke-width="3.5" stroke-linecap="round"/></g></g></svg>